<svg xmlns="http://www.w3.org/2000/svg" xmlns:xlink="http://www.w3.org/1999/xlink" viewBox="0 0 410 120"><defs><style>.cls-1,.cls-10{font-size:48.15px;font-family:Roboto-Bold, Roboto;font-weight:700;}.cls-1{stroke:#000;stroke-linejoin:round;stroke-width:17px;}.cls-2{letter-spacing:0.01em;}.cls-3{letter-spacing:0em;}.cls-4{letter-spacing:-0.04em;}.cls-5{mask:url(#mask);}.cls-6,.cls-7,.cls-8,.cls-9{fill:#3bb0f2;}.cls-6{opacity:0.07;}.cls-8{opacity:0.53;}.cls-9{opacity:0.28;}.cls-10{fill:#fff;}.cls-11{filter:url(#luminosity-noclip);}</style><filter id="luminosity-noclip" x="6.78" y="6.22" width="396.44" height="107.55" filterUnits="userSpaceOnUse" color-interpolation-filters="sRGB"><feFlood flood-color="#fff" result="bg"/><feBlend in="SourceGraphic" in2="bg"/></filter><mask id="mask" x="6.78" y="6.22" width="396.44" height="107.55" maskUnits="userSpaceOnUse"><g class="cls-11"><text class="cls-1" transform="translate(39.9 74.07)">P<tspan class="cls-2" x="31.06" y="0">I</tspan><tspan class="cls-3" x="45.49" y="0">XEL CAN</tspan><tspan class="cls-4" x="239.12" y="0">V</tspan><tspan x="268.84" y="0">AS</tspan></text></g></mask></defs><g id="Layer_2" data-name="Layer 2"><g class="cls-5"><rect class="cls-6" x="6.78" y="64" width="49.78" height="49.78" rx="5.11"/><rect class="cls-7" x="64.56" y="64" width="49.78" height="49.78" rx="5.25"/><rect class="cls-8" x="6.78" y="6.22" width="49.78" height="49.78" rx="5.37"/><rect class="cls-9" x="64.56" y="6.22" width="49.78" height="49.78" rx="5.02"/><rect class="cls-8" x="122.33" y="64" width="49.78" height="49.78" rx="5.04"/><rect class="cls-9" x="180.11" y="64" width="49.78" height="49.78" rx="5.09"/><rect class="cls-6" x="122.33" y="6.22" width="49.78" height="49.78" rx="4.55"/><rect class="cls-9" x="180.11" y="6.22" width="49.78" height="49.78" rx="4.69"/><rect class="cls-6" x="237.89" y="64" width="49.78" height="49.78" rx="5.45"/><rect class="cls-9" x="295.67" y="64" width="49.78" height="49.78" rx="5.2"/><rect class="cls-8" x="237.89" y="6.22" width="49.78" height="49.78" rx="5.09"/><rect class="cls-7" x="295.67" y="6.22" width="49.78" height="49.78" rx="5.32"/><rect class="cls-6" x="353.45" y="64" width="49.78" height="49.78" rx="5.16"/><rect class="cls-9" x="353.45" y="6.22" width="49.78" height="49.78" rx="5.11"/></g><text class="cls-10" transform="translate(39.9 74.07)">P<tspan class="cls-2" x="31.06" y="0">I</tspan><tspan class="cls-3" x="45.49" y="0">XEL CAN</tspan><tspan class="cls-4" x="239.12" y="0">V</tspan><tspan x="268.84" y="0">AS</tspan></text></g></svg>