<svg id="Layer_1" data-name="Layer 1" xmlns="http://www.w3.org/2000/svg" viewBox="0 0 32 32"><defs><style>.cls-1,.cls-2{fill:none;stroke:#f24b4b;stroke-linecap:round;stroke-width:4px;}.cls-1{stroke-linejoin:round;}.cls-2{stroke-miterlimit:10;}</style></defs><path class="cls-1" d="M6.26,14.18v12a3.76,3.76,0,0,0,3.86,3.64H21.88a3.76,3.76,0,0,0,3.86-3.64v-12"/><path class="cls-2" d="M5.12,7.76H26.88a2,2,0,0,1,2,2v1.83a.12.12,0,0,1-.12.12H3.24a.12.12,0,0,1-.12-.12V9.76A2,2,0,0,1,5.12,7.76Z"/><path class="cls-1" d="M11.94,6.76v-3a1.45,1.45,0,0,1,1.28-1.58h6a1.45,1.45,0,0,1,1.27,1.58v3"/></svg>