<svg xmlns="http://www.w3.org/2000/svg" xmlns:xlink="http://www.w3.org/1999/xlink" viewBox="0 0 32 32"><defs><style>.cls-1{fill:none;}.cls-2{clip-path:url(#clip-path);}.cls-3{fill:#f05b5b;}.cls-4{fill:#f5c35d;}.cls-5{fill:#58c96d;}.cls-6{fill:#a174c4;}.cls-7{fill:#f2f2f2;}</style><clipPath id="clip-path"><circle class="cls-1" cx="16" cy="16" r="13.91"/></clipPath></defs><g id="Layer_3" data-name="Layer 3"><g class="cls-2"><rect class="cls-3" x="6.37" y="-6.56" width="6.13" height="32" transform="translate(9.44 -3.91) rotate(45)"/><rect class="cls-4" x="10.71" y="-2.23" width="6.13" height="32" transform="translate(13.77 -5.7) rotate(45)"/><rect class="cls-5" x="15.04" y="2.1" width="6.13" height="32" transform="translate(18.1 -7.5) rotate(45)"/><rect class="cls-6" x="19.37" y="6.43" width="6.13" height="32" transform="translate(22.43 -9.29) rotate(45)"/></g><path class="cls-7" d="M16,4A12,12,0,1,1,4,16,12,12,0,0,1,16,4h0m0-4A16,16,0,1,0,32,16,16,16,0,0,0,16,0Z"/></g></svg>